<svg width="45" height="45" viewBox="0 0 45 45" fill="none" xmlns="http://www.w3.org/2000/svg">
<path d="M22.5 0C10.0931 0 0 10.0931 0 22.5C0 34.9069 10.0931 45 22.5 45C34.9069 45 45 34.9069 45 22.5C45 10.0931 34.9069 0 22.5 0ZM31.875 31.875H13.125C12.0881 31.875 11.25 31.0351 11.25 30.0001C11.25 28.9651 12.0881 28.1251 13.125 28.1251H31.8749C32.9118 28.1251 33.7499 28.9651 33.7499 30.0001C33.75 31.035 32.9119 31.875 31.875 31.875ZM31.875 24.375H13.125C12.0881 24.375 11.25 23.535 11.25 22.5C11.25 21.465 12.0881 20.625 13.125 20.625H31.8749C32.9118 20.625 33.7499 21.465 33.7499 22.5C33.7499 23.535 32.9119 24.375 31.875 24.375ZM31.875 16.875H13.125C12.0881 16.875 11.25 16.035 11.25 15C11.25 13.965 12.0881 13.1251 13.125 13.1251H31.8749C32.9118 13.1251 33.7499 13.965 33.7499 15C33.7499 16.035 32.9119 16.875 31.875 16.875Z" fill="white"/>
</svg>
